# Wavefront OBJ exported by MilkShape 3D

mtllib navmarker.mtl

v 0.000000 0.857591 0.000000
v -1.500000 1.686771 -0.000000
v -0.463525 1.686771 1.500000
v 1.213526 1.686771 0.927051
v 1.213525 1.686771 -0.927051
v -0.463526 1.686771 -1.500000
v -1.213526 3.028404 0.927051
v 0.463525 3.028404 1.500000
v 1.500000 3.028404 -0.000000
v 0.463525 3.028404 -1.500000
v -1.213526 3.028404 -0.927051
v 0.000000 3.857584 0.000000
# 12 vertices

vt 0.100000 1.000000
vt 0.200000 1.352416
vt 0.000000 1.352416
vt 0.300000 1.000000
vt 0.400000 1.352416
vt 0.500000 1.000000
vt 0.600000 1.352416
vt 0.700000 1.000000
vt 0.800000 1.352416
vt -0.100000 1.000000
vt -0.200000 1.352416
vt 0.100000 1.647584
vt 0.300000 1.647584
vt 0.500000 1.647584
vt 0.700000 1.647584
vt 0.900000 1.647584
vt -0.100000 1.647584
vt 0.200000 2.000000
vt 0.400000 2.000000
vt 0.600000 2.000000
vt 0.800000 2.000000
vt 0.000000 2.000000
# 22 texture coordinates

vn 0.000000 -1.500000 -0.000000
vn -0.463526 -0.670820 1.500000
vn -1.500000 -0.670820 0.000000
vn 1.213526 -0.670820 0.927051
vn 1.213525 -0.670820 -0.927051
vn -0.463526 -0.670820 -1.500000
vn -1.213526 0.670820 0.927051
vn 0.463525 0.670820 1.500000
vn 1.500000 0.670820 -0.000000
vn 0.463526 0.670820 -1.500000
vn -1.213526 0.670820 -0.927051
vn -0.000000 1.500000 -0.000000
# 12 normals

g Geosphere,1
usemtl Material01
s 1
f 1/1/1 3/2/2 2/3/3
f 1/4/1 4/5/4 3/2/2
f 1/6/1 5/7/5 4/5/4
f 1/8/1 6/9/6 5/7/5
f 1/10/1 2/3/3 6/11/6
f 2/3/3 3/2/2 7/12/7
f 7/12/7 3/2/2 8/13/8
f 3/2/2 4/5/4 8/13/8
f 8/13/8 4/5/4 9/14/9
f 4/5/4 5/7/5 9/14/9
f 9/14/9 5/7/5 10/15/10
f 5/7/5 6/9/6 10/15/10
f 10/15/10 6/9/6 11/16/11
f 6/11/6 2/3/3 11/17/11
f 11/17/11 2/3/3 7/12/7
f 7/12/7 8/13/8 12/18/12
f 8/13/8 9/14/9 12/19/12
f 9/14/9 10/15/10 12/20/12
f 10/15/10 11/16/11 12/21/12
f 11/17/11 7/12/7 12/22/12
# 20 triangles in group

# 20 triangles total

